# This file uses centimeters as units for non-parametric coordinates.

v 0.000000 1.002232 0.000000
v 0.000000 -0.001092 -0.706304
v -0.706304 -0.001092 -0.000000
v -0.000000 -0.001092 0.706304
v 0.706304 -0.001092 -0.000000
v 0.000000 -1.004416 -0.000000
vt 0.500000 1.000000
vt 0.749716 0.500568
vt 0.250284 0.500568
vt 0.375142 0.500568
vt 0.500000 0.500568
vt 0.624858 0.500568
vt 0.250284 0.500568
vt 0.375142 0.500568
vt 0.500000 1.000000
vt 0.500000 0.500568
vt 0.624858 0.500568
vt 0.749716 0.500568
vn -0.633017 0.445621 -0.633017
vn -0.633017 0.445621 -0.633017
vn -0.633017 0.445621 -0.633017
vn -0.633017 0.445621 0.633017
vn -0.633017 0.445621 0.633017
vn -0.633017 0.445621 0.633017
vn 0.633017 0.445621 0.633017
vn 0.633017 0.445621 0.633017
vn 0.633017 0.445621 0.633017
vn 0.633017 0.445621 -0.633017
vn 0.633017 0.445621 -0.633017
vn 0.633017 0.445621 -0.633017
vn -0.633017 -0.445621 -0.633017
vn -0.633017 -0.445621 -0.633017
vn -0.633017 -0.445621 -0.633017
vn -0.633017 -0.445621 0.633017
vn -0.633017 -0.445621 0.633017
vn -0.633017 -0.445621 0.633017
vn 0.633017 -0.445621 0.633017
vn 0.633017 -0.445621 0.633017
vn 0.633017 -0.445621 0.633017
vn 0.633017 -0.445621 -0.633017
vn 0.633017 -0.445621 -0.633017
vn 0.633017 -0.445621 -0.633017
f 2/3/1 3/4/2 1/1/3
f 3/4/4 4/5/5 1/1/6
f 4/5/7 5/6/8 1/1/9
f 5/6/10 2/2/11 1/1/12
f 2/7/13 6/9/14 3/8/15
f 3/8/16 6/9/17 4/10/18
f 4/10/19 6/9/20 5/11/21
f 5/11/22 6/9/23 2/12/24
